PathFileType	4	(X/Y/Z)	Patient4_TMGait_0pt2_01_right_16.trc.trc
DataRate	CameraRate	NumFrames	NumMarkers	Units	OrigDataRate	OrigDataStartFrame	OrigNumFrames
41.916167664671	41.916167664671	4	33	mm	41.916167664671	53	       141
Frame#	Time	Sacral			L.Shoulder			Chest			R.Shoulder			Neck			R.ASIS			L.ASIS			R.Thigh.Superior			R.Thigh.Lateral			R.Thigh.Inferior			R.Patella			L.Thigh.Superior			L.Thigh.Lateral			L.Thigh.Inferior			L.Patella			L.Shank.Superior			L.Shank.Lateral			L.Shank.Inferior			R.Shank.Superior			R.Shank.Lateral			R.Shank.Inferior			R.Heel			R.Midfoot.Superior			R.Midfoot.Lateral			R.Toe			L.Heel			L.Midfoot.Lateral			L.Midfoot.Superior			L.Toe			L.Elbow			L.Wrist			R.Elbow			R.Wrist			
		X1	Y1	Z1	X2	Y2	Z2	X3	Y3	Z3	X4	Y4	Z4	X5	Y5	Z5	X6	Y6	Z6	X7	Y7	Z7	X8	Y8	Z8	X9	Y9	Z9	X10	Y10	Z10	X11	Y11	Z11	X12	Y12	Z12	X13	Y13	Z13	X14	Y14	Z14	X15	Y15	Z15	X16	Y16	Z16	X17	Y17	Z17	X18	Y18	Z18	X19	Y19	Z19	X20	Y20	Z20	X21	Y21	Z21	X22	Y22	Z22	X23	Y23	Z23	X24	Y24	Z24	X25	Y25	Z25	X26	Y26	Z26	X27	Y27	Z27	X28	Y28	Z28	X29	Y29	Z29	X30	Y30	Z30	X31	Y31	Z31	X32	Y32	Z32	X33	Y33	Z33	

53	36.680571428571	687.340937217433	982.849455299420	577.751371841934	864.452252085904	1409.628895417291	390.712382017866	959.750650038681	1348.094510936648	558.272459003975	868.076718217316	1421.390016994885	728.127018975594	835.699024366660	1476.020198735693	546.095970200899	919.262454943865	926.167242071897	698.382644461695	905.522591318428	943.908604340206	424.723704472605	978.845154293439	733.037494141578	641.841395580237	913.849792913385	608.983998228566	693.567176090754	986.749143304459	571.098938911584	601.552095143234	994.685219378719	474.655674455277	598.753970817547	984.344386138082	754.836928488634	449.268774444356	937.841906093328	631.323800588784	363.260951195023	1034.702042583802	563.273596695346	428.919059192719	1042.433604486670	473.589341449851	413.636355257331	972.405337853758	412.180185134101	396.559861149285	829.526620040477	379.703086619047	341.965955177586	813.086189164987	244.678486579548	381.338125340799	949.624330482332	385.529272212149	602.181363387101	869.628242643463	288.614174625421	667.635511829749	884.505956041708	195.701898223268	594.253345580518	724.088546864494	43.429849326918	574.221061529786	899.756612130926	96.349220842724	594.472697569863	814.245759571919	37.167392747915	640.508777220419	1020.788709865050	42.136101501428	610.026456847598	619.710154027630	178.547503693991	410.006156782973	677.795566779436	143.939864954607	324.599273194253	783.314502092952	148.898066806385	347.081579540333	861.206877921584	41.580511534060	304.008242427022	837.912860118404	1050.200199684448	289.829455967088	896.053575495857	797.196591242368	297.733353013987	875.620675972311	1073.052644274045	857.668200975377	1036.971778922040	871.868028575202	895.455264294336	
54	36.704428571429	685.799659930615	981.158683074009	582.281581765555	858.753804009041	1408.070284105642	391.695322271879	957.864563983466	1346.534853381739	557.014157303409	870.230894810820	1419.898375857066	728.978715229058	833.778339448209	1474.545993029101	547.396077882849	919.727610500827	924.654862838825	698.505863187126	901.360477638098	942.736087017544	425.118568856764	978.898937800930	731.643007015799	641.008334708049	915.119919242101	607.361312136079	693.236528253647	986.815596057209	569.922090889230	599.996940663851	994.806274999987	473.021487016475	597.009589559108	984.888484880305	758.169483640856	450.833220999465	942.676505789533	633.481797923124	364.535002712013	1041.472368632482	568.197431715312	430.521585315153	1052.082799145607	478.654692840544	414.781629410652	983.546559077637	415.519146793468	397.347114746193	841.305165062396	379.812959386787	343.519065305386	828.834681714402	244.300972777772	381.966016332523	948.662297958951	384.000052223717	600.927992076400	868.192139965112	287.834700170875	667.071054245969	881.254890824057	194.848002455641	593.588489587654	719.419617680587	43.520762737961	574.262745959050	895.035569635385	96.223367555390	594.302136658510	809.526279783708	37.191934209388	640.528902231504	1016.104170565246	41.820829381999	609.975607026340	638.015079832272	173.046705724316	411.885385977033	695.928916338512	140.873295229874	325.475840267516	801.335388035261	148.163991101592	347.082438154471	881.365507458390	43.016854698054	301.874264609562	817.853830479048	1050.212482482411	292.109253607144	855.367625277204	792.479316448612	300.786293684366	893.204733570112	1072.933857790916	860.123306269925	1070.125623280080	884.758689661091	894.173968365217	
55	36.728285714286	684.510590067546	980.150087805146	586.635900035699	852.929669513511	1407.202029222627	392.581147654809	956.026620625037	1345.645122510949	555.426080189849	872.653379770947	1419.088269931302	729.476944524032	831.891227321165	1473.656281420615	548.539543971971	920.310372081851	923.643742511001	698.312660685910	897.315998040225	942.157874314705	425.283588767143	978.467173143084	730.452198722534	640.120141476548	915.501674166564	606.189360857109	692.986443205331	985.913864888882	568.938776106257	598.633944605064	993.734012294731	471.746443706441	595.543535660032	984.646702306854	761.525635841891	451.974960168012	945.966713069689	635.920920693430	365.418437593300	1046.326079155122	573.079776008178	431.559756398435	1059.754492207635	484.103002379991	415.530000683033	993.453978005530	419.164204433772	397.679932118225	852.811532699169	378.579618289645	344.159094105652	845.836386551000	242.729553846990	381.812091729761	946.744585200246	382.846783354619	599.902317914057	866.043045518257	287.247854271029	666.670610775210	877.639817285100	194.218818005875	593.060447572690	714.738664214542	43.620357554351	574.313184596686	890.300971636299	96.110386981871	594.174089949309	804.798639388133	37.210012560168	640.552505173297	1011.400076189379	41.528223263067	609.927143264947	658.745573028500	164.318983211762	412.457346251886	717.044461839909	135.023798641184	325.369970246322	821.976122660465	145.909524454808	346.388614418424	905.337943286188	44.167587152668	299.717779369162	797.654116103355	1051.824534425683	294.009858373768	816.842142375535	791.477319978107	304.360998772062	911.177544813128	1074.449392836629	862.205148479960	1102.877064847691	900.719737241425	891.919426041866	
56	36.752142857143	683.477722055229	979.903841989003	590.774221203937	847.081011180781	1407.077481129885	393.373438462640	954.262216403707	1345.479457599133	553.545108497652	875.321374636553	1419.043258219091	729.608680153108	830.073310547191	1473.409481017862	549.520693696320	920.981216058473	923.196493233680	697.836293720192	893.427402446515	942.245957547020	425.241155316048	977.492492943361	729.517637683137	639.248518007790	914.885464722776	605.524760697037	692.882721541457	983.963710785955	568.183509907872	597.568422140386	991.376175458086	470.876008523728	594.471947410075	983.613864750012	764.840968283553	452.646194864642	947.642250438218	638.545574467152	365.869743691929	1049.207411588555	577.766840958013	431.975479658170	1065.321006620947	489.773497398218	415.825616320737	1001.953461266207	423.043534597580	397.537896800900	863.936718558298	376.128371002528	343.867068554390	863.834700489395	240.213077679140	380.891419306652	943.794269742421	382.119583077760	599.195185427718	863.096704674962	286.880737878160	666.479444522095	873.627871382501	193.840946299270	592.712950885639	710.035627821689	43.728251609326	574.372436929881	885.553427264844	96.015460229551	594.101013338281	800.058172194642	37.220804652390	640.581481532883	1006.671013651515	41.267573906453	609.885401411734	681.668469308333	152.994726726333	411.748158684979	740.842043951856	126.876819928043	324.326114370347	844.910766086097	142.418522164570	345.041021762823	932.562204444944	45.105137467789	297.646111759585	777.555674918462	1054.972560032045	295.719446849453	780.970380047739	793.657399344589	308.486331356759	929.361610089948	1077.668144805350	863.863127760996	1134.732012185030	919.668489823262	888.680479846739	
